<?xml version="1.0" encoding="utf-8"?>
<!-- Generator: Adobe Illustrator 18.1.1, SVG Export Plug-In . SVG Version: 6.00 Build 0)  -->
<!DOCTYPE svg PUBLIC "-//W3C//DTD SVG 1.1//EN" "http://www.w3.org/Graphics/SVG/1.1/DTD/svg11.dtd">
<svg version="1.1" id="Layer_1" xmlns="http://www.w3.org/2000/svg" xmlns:xlink="http://www.w3.org/1999/xlink" x="0px" y="0px"
	 viewBox="0 0 150 96.97" enable-background="new 0 0 150 96.97" xml:space="preserve">
<g id="Byhøst_x5F_Logo_2">
</g>
<g>
	<g>
		<g>
			<g>
				<path fill="#265728" d="M17,42.22v1.22c0,3.5-1.07,5.74-3.45,6.86c2.87,1.12,3.99,3.7,3.99,7.29v2.77
					c0,5.25-2.77,8.07-8.12,8.07H1V34.39h8.07C14.61,34.39,17,36.97,17,42.22z M6.35,39.25v9h2.09c1.99,0,3.21-0.88,3.21-3.6v-1.9
					c0-2.43-0.83-3.5-2.72-3.5H6.35z M6.35,53.11v10.45h3.06c1.8,0,2.77-0.83,2.77-3.35v-2.97c0-3.16-1.02-4.13-3.45-4.13H6.35z"/>
			</g>
		</g>
		<g>
			<g>
				<path fill="#265728" d="M28.42,57.15l-6.76-22.76h5.59l4.08,15.51l4.08-15.51h5.11l-6.76,22.76v11.28h-5.35V57.15z"/>
			</g>
		</g>
		<g>
			<g>
				<path fill="#265728" d="M51.73,68.43h-5.35V34.39h5.35v14.59h6.08V34.39h5.45v34.04h-5.45V53.84h-6.08V68.43z"/>
			</g>
		</g>
		<g>
			<g>
				<path fill="#265728" d="M72.3,66.19c-1.12-1.46-1.7-3.45-1.7-5.93v-17.7c0-5.45,2.87-8.56,8.12-8.56c1.95,0,3.6,0.44,4.86,1.26
					l0.97-2.67l1.8,0.63l-1.26,3.45c1.17,1.41,1.75,3.4,1.75,5.88v17.7c0,5.45-2.87,8.56-8.12,8.56c-1.95,0-3.6-0.39-4.86-1.21
					l-0.97,2.63l-1.8-0.63L72.3,66.19z M75.95,56.22l5.45-15.02c-0.24-1.65-1.26-2.33-2.67-2.33c-1.7,0-2.77,0.92-2.77,3.35V56.22z
					 M81.49,60.6v-14l-5.5,15.02c0.29,1.7,1.27,2.33,2.72,2.33C80.42,63.95,81.49,63.03,81.49,60.6z"/>
			</g>
		</g>
		<g>
			<g>
				<path fill="#265728" d="M101.33,34c5.2,0,7.88,3.11,7.88,8.56v1.07h-5.06v-1.41c0-2.43-0.97-3.35-2.67-3.35
					c-1.7,0-2.67,0.92-2.67,3.35c0,7,10.45,8.32,10.45,18.04c0,5.45-2.72,8.56-7.97,8.56c-5.25,0-7.97-3.11-7.97-8.56v-2.09h5.06
					v2.43c0,2.43,1.07,3.31,2.77,3.31c1.7,0,2.77-0.88,2.77-3.31c0-7-10.45-8.32-10.45-18.04C93.45,37.11,96.13,34,101.33,34z"/>
			</g>
		</g>
		<g>
			<g>
				<path fill="#265728" d="M113.98,34.39h16.53v4.86h-5.59v29.18h-5.35V39.25h-5.59V34.39z"/>
			</g>
		</g>
		<g>
			<path fill="#265728" d="M141.57,20.58c-3.88,0-7.04,3.16-7.04,7.04c0,3.88,3.16,7.04,7.04,7.04c3.88,0,7.04-3.16,7.04-7.04
				C148.61,23.74,145.45,20.58,141.57,20.58z M141.57,30.83c-1.77,0-3.21-1.44-3.21-3.21c0-1.77,1.44-3.21,3.21-3.21
				c1.77,0,3.21,1.44,3.21,3.21C144.79,29.39,143.34,30.83,141.57,30.83z"/>
		</g>
	</g>
	<g>
		<rect x="1" y="95.03" fill="#265728" width="140.52" height="1.94"/>
	</g>
	<g>
		<rect x="1" y="0" fill="#265728" width="140.52" height="1.94"/>
	</g>
</g>
</svg>
