<?xml version="1.0" encoding="utf-8"?>
<!-- Generator: Adobe Illustrator 18.1.1, SVG Export Plug-In . SVG Version: 6.00 Build 0)  -->
<!DOCTYPE svg PUBLIC "-//W3C//DTD SVG 1.1//EN" "http://www.w3.org/Graphics/SVG/1.1/DTD/svg11.dtd">
<svg version="1.1" id="Layer_1" xmlns="http://www.w3.org/2000/svg" xmlns:xlink="http://www.w3.org/1999/xlink" x="0px" y="0px"
	 viewBox="0 0 288 431" enable-background="new 0 0 288 431" xml:space="preserve">
<g id="Byhøst_x5F_Logo_2">
	<g>
		<g id="XMLID_4_">
			<g>
				<path fill="#FFFFFF" d="M48.01,65.05c0-3.77-1.28-5.44-4.24-5.44h-4V73.6h3.25c3.1,0,4.99-1.36,4.99-5.59V65.05z M48.85,87.58
					c0-4.92-1.6-6.43-5.37-6.43h-3.7v16.24h4.76c2.79,0,4.31-1.27,4.31-5.2V87.58z M44,52.06c8.61,0,12.32,4.01,12.32,12.17v1.89
					c0,5.44-1.65,8.92-5.36,10.66c4.45,1.74,6.2,5.75,6.2,11.33v4.31c0,8.17-4.31,12.55-12.62,12.55H31.46v-52.9H44z"/>
				<path fill="#245726" d="M148.01,94.39l8.54-23.36v21.77c0,3.78-1.66,5.22-4.31,5.22C149.97,98.01,148.45,97.02,148.01,94.39z"/>
				<path fill="#245726" d="M207.04,52.06v7.56h8.69v45.34h8.32V59.62h8.69v-7.56H207.04z M250.11,146.68H31.45v3.02h218.65V146.68z
					 M0,0h288.37v339.92L143.86,431L0,339.92V0z M260.84,41.54c0-6.03-4.9-10.94-10.92-10.94c-6.03,0-10.94,4.91-10.94,10.94
					c0,6.04,4.91,10.94,10.94,10.94C255.95,52.47,260.84,47.57,260.84,41.54z M74.08,87.43v17.53h8.31V87.43l10.5-35.37h-7.93
					l-6.35,24.11l-6.35-24.11h-8.69L74.08,87.43z M50.96,76.77c3.71-1.74,5.36-5.22,5.36-10.66v-1.89c0-8.15-3.71-12.17-12.32-12.17
					H31.46v52.9h13.07c8.31,0,12.62-4.38,12.62-12.55V88.1C57.16,82.52,55.41,78.51,50.96,76.77z M191.76,64.23v2.2h7.86v-1.67
					c0-8.45-4.15-13.3-12.24-13.3c-8.08,0-12.25,4.85-12.25,13.3c0,15.11,16.25,17.16,16.25,28.04c0,3.78-1.66,5.14-4.3,5.14
					c-2.66,0-4.31-1.35-4.31-5.14v-3.77h-7.86v3.25c0,8.45,4.23,13.3,12.38,13.3c8.17,0,12.4-4.85,12.4-13.3
					c0-15.11-16.25-17.16-16.25-28.04c0-3.78,1.51-5.22,4.14-5.22C190.25,59.01,191.76,60.44,191.76,64.23z M110.3,52.06h-8.31v52.9
					h8.31V82.28h9.44v22.68h8.48v-52.9h-8.48v22.68h-9.44V52.06z M159.8,53.42c-1.97-1.29-4.55-1.97-7.57-1.97
					c-8.15,0-12.62,4.85-12.62,13.3v27.51c0,3.86,0.91,6.95,2.66,9.22l-1.89,5.28l2.79,0.99l1.51-4.08
					c1.96,1.28,4.53,1.89,7.56,1.89c8.17,0,12.63-4.85,12.63-13.3V64.75c0-3.86-0.92-6.95-2.73-9.14l1.96-5.36l-2.79-0.99
					L159.8,53.42z"/>
				<path fill="#245726" d="M152.24,59.01c2.19,0,3.77,1.06,4.15,3.64l-8.45,23.35V64.23C147.94,60.44,149.59,59.01,152.24,59.01z"
					/>
				<path fill="#245726" d="M249.92,46.53c-2.75,0-4.99-2.24-4.99-4.99c0-2.75,2.24-4.99,4.99-4.99c2.75,0,4.99,2.24,4.99,4.99
					C254.91,44.29,252.67,46.53,249.92,46.53z"/>
				<path fill="#FFFFFF" d="M156.55,71.03l-8.54,23.36c0.44,2.64,1.96,3.63,4.23,3.63c2.65,0,4.31-1.44,4.31-5.22V71.03z
					 M147.94,85.99l8.45-23.35c-0.38-2.57-1.96-3.64-4.15-3.64c-2.65,0-4.3,1.44-4.3,5.22V85.99z M152.24,51.45
					c3.02,0,5.59,0.68,7.57,1.97l1.51-4.17l2.79,0.99l-1.96,5.36c1.81,2.19,2.73,5.28,2.73,9.14v27.51c0,8.45-4.47,13.3-12.63,13.3
					c-3.03,0-5.59-0.61-7.56-1.89l-1.51,4.08l-2.79-0.99l1.89-5.28c-1.75-2.27-2.66-5.36-2.66-9.22V64.75
					C139.62,56.3,144.08,51.45,152.24,51.45z"/>
				<polygon fill="#FFFFFF" points="72.27,52.06 78.61,76.17 84.96,52.06 92.89,52.06 82.39,87.43 82.39,104.96 74.08,104.96 
					74.08,87.43 63.58,52.06 				"/>
				<path fill="#245726" d="M43.77,59.62c2.96,0,4.24,1.66,4.24,5.44v2.96c0,4.23-1.89,5.59-4.99,5.59h-3.25V59.62H43.77z"/>
				<path fill="#FFFFFF" d="M187.3,105.57c-8.15,0-12.38-4.85-12.38-13.3v-3.25h7.86v3.77c0,3.78,1.65,5.14,4.31,5.14
					c2.64,0,4.3-1.35,4.3-5.14c0-10.88-16.25-12.93-16.25-28.04c0-8.45,4.17-13.3,12.25-13.3c8.08,0,12.24,4.85,12.24,13.3v1.67
					h-7.86v-2.2c0-3.78-1.51-5.22-4.17-5.22c-2.64,0-4.14,1.44-4.14,5.22c0,10.88,16.25,12.93,16.25,28.04
					C199.7,100.72,195.46,105.57,187.3,105.57z"/>
				<polygon fill="#FFFFFF" points="215.73,59.62 207.04,59.62 207.04,52.06 232.74,52.06 232.74,59.62 224.05,59.62 224.05,104.96 
					215.73,104.96 				"/>
				<path fill="#FFFFFF" d="M254.91,41.54c0-2.75-2.24-4.99-4.99-4.99c-2.75,0-4.99,2.24-4.99,4.99c0,2.75,2.24,4.99,4.99,4.99
					C252.67,46.53,254.91,44.29,254.91,41.54z M249.92,52.47c-6.03,0-10.94-4.9-10.94-10.94c0-6.03,4.91-10.94,10.94-10.94
					c6.03,0,10.92,4.91,10.92,10.94C260.84,47.57,255.95,52.47,249.92,52.47z"/>
				<path fill="#245726" d="M43.47,81.16c3.77,0,5.37,1.51,5.37,6.43v4.61c0,3.93-1.52,5.2-4.31,5.2h-4.76V81.16H43.47z"/>
				<rect x="31.45" y="146.68" fill="#FFFFFF" width="218.65" height="3.02"/>
				<polygon fill="#FFFFFF" points="119.74,52.06 128.22,52.06 128.22,104.96 119.74,104.96 119.74,82.28 110.3,82.28 110.3,104.96 
					101.99,104.96 101.99,52.06 110.3,52.06 110.3,74.74 119.74,74.74 				"/>
			</g>
		</g>
	</g>
</g>
</svg>
